<svg width="64" height="64" viewBox="0 0 64 64" fill="none" xmlns="http://www.w3.org/2000/svg">
<path d="M60.1597 43.4665L39.7064 9.5465C38.8793 8.25268 37.7398 7.1879 36.393 6.45034C35.0461 5.71277 33.5353 5.32617 31.9997 5.32617C30.4641 5.32617 28.9533 5.71277 27.6064 6.45034C26.2596 7.1879 25.1201 8.25268 24.293 9.5465L3.8397 43.4665C3.11717 44.6709 2.72447 46.0443 2.70106 47.4486C2.67766 48.853 3.02438 50.2387 3.70636 51.4665C4.49484 52.8485 5.63612 53.9965 7.01357 54.7929C8.39101 55.5894 9.95523 56.0059 11.5464 55.9998H52.453C54.0337 56.0167 55.5909 55.6163 56.9674 54.8391C58.3439 54.0619 59.491 52.9354 60.293 51.5732C60.995 50.3326 61.3528 48.9269 61.3294 47.5017C61.306 46.0764 60.9021 44.6833 60.1597 43.4665ZM55.6264 48.9332C55.3059 49.4841 54.8408 49.9368 54.2814 50.2423C53.722 50.5479 53.0898 50.6946 52.453 50.6665H11.5464C10.9096 50.6946 10.2773 50.5479 9.71799 50.2423C9.15863 49.9368 8.69352 49.4841 8.37303 48.9332C8.13898 48.5278 8.01576 48.0679 8.01576 47.5998C8.01576 47.1317 8.13898 46.6719 8.37303 46.2665L28.853 12.3198C29.221 11.8337 29.6967 11.4395 30.2426 11.168C30.7886 10.8966 31.39 10.7553 31.9997 10.7553C32.6094 10.7553 33.2108 10.8966 33.7568 11.168C34.3027 11.4395 34.7784 11.8337 35.1464 12.3198L55.5997 46.2398C55.8428 46.646 55.9734 47.1096 55.9781 47.5829C55.9827 48.0562 55.8614 48.5223 55.6264 48.9332Z" fill="#DD4B39"/>
<path d="M32.0004 45.3333C33.4732 45.3333 34.6671 44.1394 34.6671 42.6667C34.6671 41.1939 33.4732 40 32.0004 40C30.5276 40 29.3337 41.1939 29.3337 42.6667C29.3337 44.1394 30.5276 45.3333 32.0004 45.3333Z" fill="#DD4B39"/>
<path d="M32.0004 21.3345C31.2932 21.3345 30.6149 21.6154 30.1148 22.1155C29.6147 22.6156 29.3337 23.2939 29.3337 24.0011V34.6678C29.3337 35.375 29.6147 36.0533 30.1148 36.5534C30.6149 37.0535 31.2932 37.3345 32.0004 37.3345C32.7076 37.3345 33.3859 37.0535 33.886 36.5534C34.3861 36.0533 34.6671 35.375 34.6671 34.6678V24.0011C34.6671 23.2939 34.3861 22.6156 33.886 22.1155C33.3859 21.6154 32.7076 21.3345 32.0004 21.3345Z" fill="#DD4B39"/>
</svg>
