<svg width="64" height="64" viewBox="0 0 64 64" fill="none" xmlns="http://www.w3.org/2000/svg">
<path d="M31.9997 5.33203C26.7255 5.33203 21.5698 6.896 17.1845 9.82617C12.7992 12.7563 9.38124 16.9211 7.3629 21.7938C5.34456 26.6665 4.81647 32.0283 5.84541 37.2011C6.87435 42.3739 9.41411 47.1255 13.1435 50.8549C16.8729 54.5843 21.6245 57.124 26.7973 58.153C31.9701 59.1819 37.3319 58.6538 42.2046 56.6355C47.0773 54.6171 51.242 51.1992 54.1722 46.8139C57.1024 42.4286 58.6664 37.2729 58.6664 31.9987C58.6664 28.4968 57.9766 25.0292 56.6365 21.7938C55.2964 18.5585 53.3321 15.6187 50.8559 13.1425C48.3796 10.6663 45.4399 8.70204 42.2046 7.36191C38.9692 6.02179 35.5016 5.33203 31.9997 5.33203ZM31.9997 53.332C27.7804 53.332 23.6558 52.0808 20.1475 49.7367C16.6393 47.3926 13.9049 44.0608 12.2903 40.1626C10.6756 36.2644 10.2531 31.975 11.0763 27.8368C11.8994 23.6985 13.9312 19.8973 16.9147 16.9138C19.8983 13.9302 23.6995 11.8984 27.8378 11.0753C31.976 10.2521 36.2654 10.6746 40.1636 12.2893C44.0618 13.9039 47.3936 16.6383 49.7377 20.1465C52.0818 23.6548 53.333 27.7794 53.333 31.9987C53.333 37.6566 51.0854 43.0829 47.0846 47.0836C43.0839 51.0844 37.6576 53.332 31.9997 53.332Z" fill="#1A1A1A"/>
<path d="M42.6663 29.3346H34.6663V21.3346C34.6663 20.6274 34.3854 19.9491 33.8853 19.449C33.3852 18.9489 32.7069 18.668 31.9997 18.668C31.2924 18.668 30.6142 18.9489 30.1141 19.449C29.614 19.9491 29.333 20.6274 29.333 21.3346V32.0013C29.333 32.7085 29.614 33.3868 30.1141 33.8869C30.6142 34.387 31.2924 34.668 31.9997 34.668H42.6663C43.3736 34.668 44.0519 34.387 44.552 33.8869C45.0521 33.3868 45.333 32.7085 45.333 32.0013C45.333 31.2941 45.0521 30.6158 44.552 30.1157C44.0519 29.6156 43.3736 29.3346 42.6663 29.3346Z" fill="#1A1A1A"/>
</svg>
