<svg width="64" height="64" viewBox="0 0 64 64" fill="none" xmlns="http://www.w3.org/2000/svg">
<path d="M45.3334 21.3341H42.6667V16.2941C42.6667 13.4651 41.5429 10.752 39.5426 8.75164C37.5422 6.75125 34.8291 5.62744 32.0001 5.62744C29.1711 5.62744 26.458 6.75125 24.4576 8.75164C22.4572 10.752 21.3334 13.4651 21.3334 16.2941V21.3341H18.6667C16.545 21.3341 14.5102 22.177 13.0099 23.6773C11.5096 25.1775 10.6667 27.2124 10.6667 29.3341V50.6674C10.6667 52.7892 11.5096 54.824 13.0099 56.3243C14.5102 57.8246 16.545 58.6674 18.6667 58.6674H45.3334C47.4551 58.6674 49.49 57.8246 50.9903 56.3243C52.4906 54.824 53.3334 52.7892 53.3334 50.6674V29.3341C53.3334 27.2124 52.4906 25.1775 50.9903 23.6773C49.49 22.177 47.4551 21.3341 45.3334 21.3341ZM26.6667 16.2941C26.6309 14.8416 27.1719 13.434 28.1715 12.3794C29.1711 11.3249 30.5477 10.7093 32.0001 10.6674C33.4525 10.7093 34.8291 11.3249 35.8287 12.3794C36.8282 13.434 37.3693 14.8416 37.3334 16.2941V21.3341H26.6667V16.2941ZM48.0001 50.6674C48.0001 51.3747 47.7191 52.053 47.219 52.5531C46.7189 53.0532 46.0407 53.3341 45.3334 53.3341H18.6667C17.9595 53.3341 17.2812 53.0532 16.7811 52.5531C16.281 52.053 16.0001 51.3747 16.0001 50.6674V29.3341C16.0001 28.6269 16.281 27.9486 16.7811 27.4485C17.2812 26.9484 17.9595 26.6674 18.6667 26.6674H45.3334C46.0407 26.6674 46.7189 26.9484 47.219 27.4485C47.7191 27.9486 48.0001 28.6269 48.0001 29.3341V50.6674Z" fill="#CCCCCC"/>
<path d="M32 32C30.4178 32 28.871 32.4692 27.5554 33.3482C26.2398 34.2273 25.2145 35.4767 24.609 36.9385C24.0035 38.4003 23.845 40.0089 24.1537 41.5607C24.4624 43.1126 25.2243 44.538 26.3431 45.6569C27.462 46.7757 28.8874 47.5376 30.4393 47.8463C31.9911 48.155 33.5997 47.9965 35.0615 47.391C36.5233 46.7855 37.7727 45.7602 38.6518 44.4446C39.5308 43.129 40 41.5823 40 40C40 37.8783 39.1571 35.8434 37.6569 34.3431C36.1566 32.8429 34.1217 32 32 32ZM32 42.6667C31.4726 42.6667 30.957 42.5103 30.5185 42.2173C30.08 41.9242 29.7382 41.5078 29.5363 41.0205C29.3345 40.5332 29.2817 39.997 29.3846 39.4798C29.4875 38.9625 29.7414 38.4873 30.1144 38.1144C30.4873 37.7414 30.9625 37.4875 31.4798 37.3846C31.997 37.2817 32.5332 37.3345 33.0205 37.5363C33.5078 37.7382 33.9242 38.0799 34.2173 38.5185C34.5103 38.957 34.6667 39.4726 34.6667 40C34.6667 40.7072 34.3857 41.3855 33.8856 41.8856C33.3855 42.3857 32.7072 42.6667 32 42.6667Z" fill="#CCCCCC"/>
</svg>
