<svg width="64" height="62" viewBox="0 0 64 62" fill="none" xmlns="http://www.w3.org/2000/svg">
<path d="M31.9998 41.2041C31.3768 41.2052 30.7729 40.9957 30.2932 40.6117L14.2932 27.7353C13.7486 27.2982 13.4061 26.67 13.3411 25.9891C13.2761 25.3081 13.4939 24.6301 13.9465 24.1042C14.3991 23.5782 15.0496 23.2475 15.7547 23.1847C16.4598 23.1219 17.1619 23.3322 17.7065 23.7694L31.9998 35.3066L46.2932 24.1814C46.5659 23.9675 46.8798 23.8077 47.2167 23.7113C47.5536 23.615 47.9069 23.5838 48.2563 23.6197C48.6057 23.6556 48.9444 23.7578 49.2527 23.9205C49.5611 24.0832 49.8331 24.3032 50.0532 24.5677C50.2974 24.8325 50.4823 25.1431 50.5965 25.4802C50.7106 25.8172 50.7514 26.1734 50.7163 26.5264C50.6813 26.8793 50.5711 27.2215 50.3928 27.5315C50.2144 27.8414 49.9717 28.1125 49.6798 28.3276L33.6798 40.7663C33.1863 41.0895 32.5948 41.2436 31.9998 41.2041Z" fill="#666666"/>
</svg>
