<svg width="64" height="64" viewBox="0 0 64 64" fill="none" xmlns="http://www.w3.org/2000/svg">
<path d="M54.9865 11.2537C54.6767 11.0031 54.3147 10.8251 53.927 10.7328C53.5394 10.6406 53.136 10.6363 52.7465 10.7204L31.9998 15.3871L11.2532 10.6671C10.8575 10.5777 10.4467 10.5798 10.0519 10.6732C9.65717 10.7665 9.28893 10.9487 8.97522 11.2059C8.6615 11.463 8.41058 11.7883 8.24156 12.1571C8.07254 12.5258 7.98986 12.9282 7.99983 13.3337V45.8671C7.98476 46.4835 8.18379 47.0861 8.56303 47.5723C8.94227 48.0585 9.47828 48.3983 10.0798 48.5337L31.4132 53.3337H32.5865L53.9198 48.5337C54.5214 48.3983 55.0574 48.0585 55.4366 47.5723C55.8159 47.0861 56.0149 46.4835 55.9998 45.8671V13.3337C55.998 12.9332 55.9059 12.5382 55.7305 12.1781C55.5551 11.818 55.3008 11.5021 54.9865 11.2537ZM13.3332 16.6671L29.3332 20.2671V47.3337L13.3332 43.7337V16.6671ZM50.6665 43.7337L34.6665 47.3337V20.2671L50.6665 16.6671V43.7337Z" fill="#1A1A1A"/>
</svg>
