<svg width="64" height="64" viewBox="0 0 64 64" fill="none" xmlns="http://www.w3.org/2000/svg">
<path d="M14 20.0002V36.0002M50.9925 6.52767C50.9925 6.52767 40.1625 20.0002 30 20.0002H10C9.46957 20.0002 8.96086 20.2109 8.58579 20.586C8.21071 20.961 8 21.4697 8 22.0002V34.0002C8 34.5306 8.21071 35.0393 8.58579 35.4144C8.96086 35.7895 9.46957 36.0002 10 36.0002H30C40.1625 36.0002 50.9925 49.5289 50.9925 49.5289C51.75 50.5289 54 49.8439 54 48.3002V7.75017C54 6.21142 51.875 5.39767 50.9925 6.52767ZM8 32.0002C8 32.0002 6 31.2502 6 28.0002C6 24.7502 8 24.0002 8 24.0002V32.0002ZM56 30.7502C56 30.7502 58 30.2089 58 28.0002C58 25.7914 56 25.2502 56 25.2502V30.7502ZM32 20.0002V36.0002V20.0002Z" stroke="#04A75C" stroke-width="4" stroke-linecap="round" stroke-linejoin="round"/>
<path d="M18 36V57C18 57.2652 18.1054 57.5196 18.2929 57.7071C18.4804 57.8946 18.7348 58 19 58H25.625C25.9383 58.0001 26.2472 57.9266 26.5269 57.7854C26.8066 57.6442 27.0492 57.4393 27.2352 57.1872C27.4212 56.935 27.5453 56.6427 27.5976 56.3338C27.6499 56.0249 27.6289 55.708 27.5362 55.4087C26.4887 52.0487 24 48.26 24 42H26C26.5304 42 27.0391 41.7893 27.4142 41.4142C27.7893 41.0391 28 40.5304 28 40V38C28 37.4696 27.7893 36.9609 27.4142 36.5858C27.0391 36.2107 26.5304 36 26 36H24" stroke="#04A75C" stroke-width="4" stroke-linecap="round" stroke-linejoin="round"/>
</svg>
