<svg width="64" height="64" viewBox="0 0 64 64" fill="none" xmlns="http://www.w3.org/2000/svg">
<path d="M32.0002 5.33398C26.726 5.33398 21.5703 6.89796 17.185 9.82813C12.7997 12.7583 9.38172 16.9231 7.36339 21.7958C5.34505 26.6685 4.81696 32.0302 5.8459 37.2031C6.87484 42.3759 9.41459 47.1274 13.144 50.8568C16.8734 54.5862 21.6249 57.126 26.7978 58.1549C31.9706 59.1839 37.3324 58.6558 42.2051 56.6374C47.0778 54.6191 51.2425 51.2012 54.1727 46.8159C57.1029 42.4305 58.6668 37.2748 58.6668 32.0006C58.6668 28.4987 57.9771 25.0311 56.637 21.7958C55.2968 18.5604 53.3326 15.6207 50.8563 13.1445C48.3801 10.6682 45.4404 8.70399 42.2051 7.36386C38.9697 6.02374 35.5021 5.33398 32.0002 5.33398ZM32.0002 53.334C27.7808 53.334 23.6563 52.0828 20.148 49.7387C16.6398 47.3945 13.9054 44.0627 12.2907 40.1646C10.6761 36.2664 10.2536 31.977 11.0768 27.8387C11.8999 23.7005 13.9317 19.8992 16.9152 16.9157C19.8987 13.9322 23.7 11.9004 27.8382 11.0772C31.9765 10.2541 36.2659 10.6766 40.1641 12.2912C44.0622 13.9059 47.3941 16.6402 49.7382 20.1485C52.0823 23.6567 53.3335 27.7813 53.3335 32.0006C53.3335 37.6586 51.0859 43.0848 47.0851 47.0856C43.0843 51.0864 37.6581 53.334 32.0002 53.334Z" fill="#9BD2B9"/>
<path d="M31.9998 16.0002C29.5245 16.0002 27.1505 16.9835 25.4002 18.7339C23.6498 20.4842 22.6665 22.8582 22.6665 25.3335C22.6665 26.0408 22.9475 26.719 23.4476 27.2191C23.9477 27.7192 24.6259 28.0002 25.3332 28.0002C26.0404 28.0002 26.7187 27.7192 27.2188 27.2191C27.7189 26.719 27.9998 26.0408 27.9998 25.3335C27.9998 24.5424 28.2344 23.769 28.674 23.1112C29.1135 22.4534 29.7382 21.9407 30.4691 21.638C31.2 21.3352 32.0043 21.256 32.7802 21.4104C33.5561 21.5647 34.2689 21.9457 34.8283 22.5051C35.3877 23.0645 35.7686 23.7772 35.923 24.5532C36.0773 25.3291 35.9981 26.1333 35.6954 26.8642C35.3926 27.5952 34.8799 28.2199 34.2221 28.6594C33.5643 29.0989 32.791 29.3335 31.9998 29.3335C31.2926 29.3335 30.6143 29.6145 30.1142 30.1146C29.6141 30.6147 29.3332 31.2929 29.3332 32.0002V37.3335C29.3332 38.0408 29.6141 38.719 30.1142 39.2191C30.6143 39.7192 31.2926 40.0002 31.9998 40.0002C32.7071 40.0002 33.3854 39.7192 33.8855 39.2191C34.3856 38.719 34.6665 38.0408 34.6665 37.3335V34.2402C36.8214 33.6109 38.6763 32.2238 39.8891 30.3347C41.102 28.4456 41.5911 26.1817 41.2664 23.9604C40.9416 21.739 39.8249 19.7099 38.1219 18.2471C36.419 16.7842 34.2447 15.9862 31.9998 16.0002Z" fill="#9BD2B9"/>
<path d="M32.0002 47.9993C33.4729 47.9993 34.6668 46.8054 34.6668 45.3327C34.6668 43.8599 33.4729 42.666 32.0002 42.666C30.5274 42.666 29.3335 43.8599 29.3335 45.3327C29.3335 46.8054 30.5274 47.9993 32.0002 47.9993Z" fill="#9BD2B9"/>
</svg>
